<?xml version="1.0" encoding="UTF-8"?>
<svg width="752pt" height="752pt" version="1.1" viewBox="0 0 752 752" xmlns="http://www.w3.org/2000/svg">
 <g>
  <path d="m271.17 339.95c37.926 0 68.781-30.855 68.781-68.781s-30.855-68.781-68.781-68.781-68.781 30.855-68.781 68.781 30.855 68.781 68.781 68.781zm0-122.77c29.766 0 53.984 24.215 53.984 53.984 0 29.766-24.215 53.984-53.984 53.984-29.766 0-53.984-24.215-53.984-53.984 0-29.766 24.219-53.984 53.984-53.984z"/>
  <path d="m368.6 158.95h-209.66v434.11h434.11v-434.11zm0 419.32h-194.86v-194.86h194.86zm0-209.66h-194.86v-194.86h194.86zm209.66 209.66h-194.86v-194.86h194.86zm0-209.66h-194.86v-194.86h194.86z"/>
  <path d="m480.83 339.95c37.926 0 68.777-30.855 68.777-68.781s-30.852-68.781-68.777-68.781-68.777 30.855-68.777 68.781 30.855 68.781 68.777 68.781zm0-122.77c29.766 0 53.977 24.215 53.977 53.984 0 29.766-24.215 53.984-53.977 53.984s-53.98-24.219-53.98-53.984 24.219-53.984 53.98-53.984z"/>
  <path d="m271.17 549.61c37.926 0 68.781-30.852 68.781-68.777 0-37.926-30.855-68.781-68.781-68.781s-68.781 30.855-68.781 68.781c0 37.926 30.855 68.777 68.781 68.777zm0-122.76c29.766 0 53.984 24.215 53.984 53.984 0 29.766-24.219 53.977-53.984 53.977s-53.984-24.215-53.984-53.977c0-29.762 24.219-53.984 53.984-53.984z"/>
  <path d="m480.83 549.61c37.926 0 68.777-30.852 68.777-68.777 0-37.926-30.852-68.781-68.777-68.781s-68.777 30.855-68.777 68.777c0 37.918 30.855 68.781 68.777 68.781zm0-122.76c29.766 0 53.977 24.215 53.977 53.984 0 29.766-24.211 53.977-53.977 53.977-29.77 0-53.98-24.215-53.98-53.98 0-29.77 24.219-53.98 53.98-53.98z"/>
  <path d="m482.18 245.02 10.465 10.465-41.852 41.852-10.465-10.465z"/>
  <path d="m521.34 255.48-41.852 41.852-10.465-10.465 41.852-41.852z"/>
  <path d="m272.52 454.67 10.465 10.465-41.852 41.852-10.465-10.465z"/>
  <path d="m311.69 465.14-41.852 41.852-10.465-10.465 41.852-41.852z"/>
 </g>
</svg>
